# xmcd
# Copyright (C) 1995-1998 Ti Kan
#
# Track frame offsets:
#       150
#       83961
#       156369
#       223649
#
# Disc length: 3617 seconds
#
# Revision: 2
# Processed by: cddbd v1.5.2PL0 Copyright (c) Steve Scherf et al.
# Submitted via: CD-Transfer v1.0
#
DISCID=300e1f04
DTITLE=Michael Friedel - 
DYEAR=1900
DGENRE=
TTITLE0=Hitclub 05.09.10 - 005
TTITLE1=Hitclub 05.09.10 - 006
TTITLE2=Hitclub 05.09.10 - 007
TTITLE3=Hitclub 05.09.10 - 008
EXTD=
EXTT0=
EXTT1=
EXTT2=
EXTT3=
PLAYORDER=
